<svg width="1024" height="1024" viewBox="0 0 1024 1024" fill="none" xmlns="http://www.w3.org/2000/svg">
<path d="M253.529 708.501C235.576 719.502 212.104 713.867 201.102 695.914C155.739 621.888 138.278 534.106 151.859 448.355C165.441 362.605 209.173 284.514 275.191 228.129C326.378 184.411 388.358 155.968 454.089 145.394C465.663 125.429 487.262 112 512 112C548.942 112 578.89 141.948 578.89 178.891C578.89 215.833 548.942 245.781 512 245.781C491.315 245.781 472.824 236.392 460.554 221.644C410.669 230.688 363.727 252.789 324.713 286.11C272.5 330.704 237.912 392.465 227.171 460.283C216.429 528.102 230.239 597.528 266.116 656.073C277.118 674.026 271.482 697.499 253.529 708.501Z" fill="black"/>
<path d="M512 912.002C475.057 912.002 445.11 882.054 445.11 845.111C445.11 808.169 475.057 778.221 512 778.221C532.684 778.221 551.175 787.61 563.445 802.358C613.331 793.314 660.272 771.213 699.287 737.892C751.499 693.298 786.087 631.537 796.829 563.719C807.57 495.9 793.76 426.474 757.883 367.929C746.882 349.976 752.517 326.503 770.47 315.501C788.424 304.499 811.896 310.135 822.898 328.088C868.261 402.114 885.722 489.896 872.14 575.646C858.559 661.397 814.826 739.488 748.808 795.873C697.621 839.591 635.642 868.034 569.91 878.608C558.337 898.573 536.737 912.002 512 912.002Z" fill="black"/>
<path d="M512 679.142C419.879 679.142 345.201 604.464 345.201 512.344C345.201 420.224 419.879 345.545 512 345.545C604.12 345.545 678.798 420.223 678.798 512.344C678.798 604.464 604.12 679.142 512 679.142Z" fill="black"/>
</svg>
