<svg width="1024" height="1024" viewBox="0 0 1024 1024" fill="none" xmlns="http://www.w3.org/2000/svg">
<path d="M186.161 685.101C187.928 685.101 189.679 685.449 191.312 686.125C192.944 686.801 194.428 687.792 195.678 689.042C196.927 690.292 197.918 691.776 198.595 693.408C199.271 695.041 199.62 696.791 199.62 698.559V782.818H824.38V698.889C824.336 697.094 824.652 695.308 825.309 693.637C825.965 691.966 826.949 690.443 828.203 689.158C829.457 687.873 830.956 686.852 832.61 686.155C834.265 685.458 836.042 685.1 837.838 685.101H898.541C902.11 685.101 905.534 686.518 908.058 689.042C910.581 691.566 911.999 694.989 911.999 698.559V841.376C911.999 848.515 909.164 855.361 904.116 860.409C899.068 865.457 892.222 868.292 885.083 868.292H824.38V868.18H138.682C131.605 868.18 124.818 865.368 119.814 860.364C114.811 855.361 112 848.574 112 841.498V698.559C112 694.989 113.418 691.566 115.941 689.042C118.465 686.518 121.889 685.101 125.458 685.101H186.161Z" fill="black"/>
<path fill-rule="evenodd" clip-rule="evenodd" d="M718.238 436.713C718.03 527.705 718.16 618.698 718.16 709.689H305.473C305.473 618.674 305.439 527.657 305.19 436.642L511.816 295.778L718.238 436.713Z" fill="black"/>
<path d="M885.472 155.711C892.515 155.761 899.254 158.594 904.217 163.592C908.309 167.713 910.918 173.032 911.708 178.721C911.892 179.976 911.991 181.25 911.995 182.533V325.351C911.995 328.92 910.578 332.343 908.054 334.867C905.53 337.391 902.106 338.809 898.537 338.809H837.834C834.265 338.809 830.841 337.391 828.317 334.867C825.794 332.343 824.376 328.92 824.376 325.351V241.072H199.62V325.115C199.62 328.685 198.202 332.108 195.678 334.632C193.154 337.156 189.73 338.573 186.161 338.573H125.458C121.929 338.574 118.542 337.188 116.024 334.715C113.507 332.242 112.062 328.879 112 325.351V182.392C112 175.315 114.811 168.529 119.814 163.525C124.818 158.522 131.605 155.711 138.681 155.711H885.472Z" fill="black"/>
</svg>
