<svg width="11" height="11" viewBox="0 0 11 11" fill="none" xmlns="http://www.w3.org/2000/svg">
<path d="M2.61821 5.23586C2.47703 5.23656 2.35026 5.14966 2.3 5.01773L1.75686 3.6053C1.73461 3.54771 1.68915 3.50225 1.63156 3.48L0.218778 2.93642C0.043053 2.86897 -0.0447225 2.67187 0.0227233 2.49606C0.0573624 2.40584 0.128647 2.33464 0.218778 2.3L1.63121 1.75686C1.6888 1.73461 1.73426 1.68915 1.75651 1.63156L2.30009 0.218779C2.36753 0.0430529 2.56464 -0.0447225 2.74045 0.0227234C2.83067 0.0573624 2.90186 0.128647 2.9365 0.218779L3.47965 1.63122C3.5019 1.6888 3.54736 1.73426 3.60494 1.75651L5.00917 2.29677C5.14642 2.34764 5.23708 2.47904 5.23586 2.62537C5.23376 2.76392 5.14729 2.88721 5.01773 2.93651L3.60529 3.47965C3.5477 3.5019 3.50225 3.54736 3.48 3.60495L2.93642 5.01773C2.88616 5.14966 2.75938 5.23656 2.61821 5.23586Z" fill="url(#paint0_linear_837_20974)"/>
<path d="M6.91882 2.27335C6.91882 2.26958 6.92188 2.26652 6.92566 2.26652H10.363V3.25084C10.363 3.84057 10.1042 4.36284 9.69632 4.7318V5.51403C9.69625 6.38227 9.13726 7.10578 8.36301 7.40513V7.77499C8.36283 8.91955 7.39215 9.81438 6.23628 9.81448H2.44216V9.81224H1.96864C1.28466 9.81224 0.763737 10.3343 0.763595 10.9375H0V6.00632C0 6.00255 0.00306055 5.99948 0.00683594 5.99948H0.756759C0.760535 5.99948 0.763595 6.00254 0.763595 6.00632V9.4461C1.09916 9.1969 1.51869 9.04865 1.96864 9.04865H2.8769V9.05088H6.23628C7.00779 9.05078 7.59923 8.46142 7.59941 7.77499V7.55352H2.40618C2.40241 7.55352 2.39935 7.55046 2.39935 7.54668V6.79676C2.39935 6.79299 2.40241 6.78992 2.40618 6.78992H7.56959C8.34109 6.78976 8.93263 6.20049 8.93272 5.51403V5.29331H4.67175C4.66799 5.29331 4.66493 5.29026 4.66492 5.28649L4.66272 4.53433C4.66271 4.53055 4.66577 4.52748 4.66956 4.52748H8.23624C9.0079 4.5274 9.59938 3.93742 9.59938 3.25084V3.03011H6.92566C6.92188 3.03011 6.91882 3.02705 6.91882 3.02328V2.27335Z" fill="url(#paint1_linear_837_20974)"/>
<defs>
<linearGradient id="paint0_linear_837_20974" x1="0.694188" y1="2.73438" x2="9.90433" y2="7.77253" gradientUnits="userSpaceOnUse">
<stop stop-color="#4AC8F9"/>
<stop offset="0.5" stop-color="#5058FF"/>
<stop offset="1" stop-color="#8B42F5"/>
</linearGradient>
<linearGradient id="paint1_linear_837_20974" x1="0.694188" y1="2.73438" x2="9.90433" y2="7.77253" gradientUnits="userSpaceOnUse">
<stop stop-color="#4AC8F9"/>
<stop offset="0.5" stop-color="#5058FF"/>
<stop offset="1" stop-color="#8B42F5"/>
</linearGradient>
</defs>
</svg>
