<?xml version="1.0" encoding="UTF-8"?>
<svg xmlns="http://www.w3.org/2000/svg" version="1.1" viewBox="0 0 1024 1024">
  <!-- Generator: Adobe Illustrator 28.6.0, SVG Export Plug-In . SVG Version: 1.2.0 Build 709)  -->
  <g>
    <g id="Layer_1">
      <path d="M819.2,232.7c-58.1-26.6-119.5-45.5-182.6-56.2-8.6,15.4-16.4,31.3-23.4,47.5-67.2-10.1-135.5-10.1-202.6,0-7-16.2-14.8-32.1-23.4-47.5-63.1,10.8-124.5,29.7-182.7,56.3-115.6,171-146.9,337.7-131.2,502,67.7,50,143.4,88,223.9,112.4,18.1-24.4,34.2-50.3,48-77.3-26.2-9.8-51.5-21.8-75.5-36.1,6.3-4.6,12.5-9.3,18.5-13.9,70,32.9,146.5,50,223.9,50s153.8-17.1,223.9-50c6.1,4.9,12.3,9.7,18.5,13.9-24.1,14.2-49.4,26.3-75.7,36.1,13.8,27.1,29.8,52.9,48,77.3,80.6-24.3,156.4-62.3,224.1-112.3,18.4-190.6-31.4-355.8-131.6-502.2ZM365,633.8c-43.6,0-79.7-39.6-79.7-88.3s34.8-88.7,79.6-88.7,80.5,40,79.8,88.7c-.8,48.7-35.2,88.3-79.6,88.3ZM659,633.8c-43.7,0-79.6-39.6-79.6-88.3s34.8-88.7,79.6-88.7,80.3,40,79.6,88.7c-.8,48.7-35.1,88.3-79.6,88.3Z"/>
    </g>
  </g>
</svg>