<svg width="8" height="8" viewBox="0 0 8 8" fill="none" xmlns="http://www.w3.org/2000/svg">
<path d="M7.61971 0.796426H4.00391C2.23247 0.796432 0.796431 2.23247 0.796426 4.00391C0.796426 5.77535 2.23246 7.21138 4.00391 7.21139H7.62127V8.00781H4.00391C1.79261 8.00781 0 6.21521 0 4.00391C5.74691e-06 1.79261 1.79261 6.56769e-06 4.00391 0H7.61971V0.796426Z" fill="#C8C5D6"/>
<path fill-rule="evenodd" clip-rule="evenodd" d="M4.00624 2.44683C4.72852 2.44683 5.33562 2.9387 5.51159 3.60569H7.62049V4.40212H5.51159C5.33562 5.06911 4.72852 5.56098 4.00624 5.56098C3.14629 5.56098 2.44916 4.86385 2.44916 4.00391C2.44916 3.14396 3.14629 2.44683 4.00624 2.44683ZM4.00624 3.24326C3.58614 3.24326 3.24559 3.58381 3.24559 4.00391C3.24559 4.424 3.58614 4.76456 4.00624 4.76456C4.42633 4.76456 4.76689 4.424 4.76689 4.00391C4.76689 3.58381 4.42633 3.24326 4.00624 3.24326Z" fill="#C8C5D6"/>
</svg>
