<svg width="17" height="17" viewBox="0 0 17 17" fill="none" xmlns="http://www.w3.org/2000/svg">
<path fill-rule="evenodd" clip-rule="evenodd" d="M2.91207 9.3057L8.5 14.8916L14.0879 9.3057C15.735 7.65922 15.735 4.97578 14.0879 3.3293C13.2908 2.53244 12.2297 2.0918 11.1 2.0918C10.1444 2.0918 9.23908 2.40579 8.5 2.98364C7.75829 2.40579 6.85292 2.0918 5.90004 2.0918C4.77295 2.0918 3.71185 2.5298 2.91207 3.3293C1.26499 4.97578 1.26499 7.65922 2.91207 9.3057ZM7.6083 6.92917L5.88853 8.65191L5.88813 8.65152L5.88813 8.65191H4.41602V7.95213H5.58847L7.6083 5.94093L9.02145 7.34316L11.1231 5.23793V5.22948H12.584V5.92925H11.4205L9.02145 8.34476L7.6083 6.92917Z" fill="#DBD8E6"/>
</svg>
