<svg width="18" height="19" viewBox="0 0 18 19" fill="none" xmlns="http://www.w3.org/2000/svg">
<path d="M3.57075 8.84883C3.91121 9.04948 4.37503 9.20409 4.94575 9.31264C5.21549 9.36198 5.4918 9.39817 5.77634 9.42284C5.7747 9.37514 5.76976 9.32909 5.76976 9.28139C5.76976 8.89652 5.84378 8.52975 5.97371 8.19093C5.53785 8.15475 5.11351 8.09718 4.71384 8.0133C4.04937 7.88994 3.50825 7.67284 3.07568 7.39488V8.22876C3.07568 8.44586 3.23029 8.64652 3.57075 8.84718V8.84883Z" fill="#ECE9F2"/>
<path d="M4.71384 9.89981C4.04937 9.76001 3.50825 9.54455 3.07568 9.28139V10.1153C3.07568 10.3324 3.23029 10.533 3.57075 10.7337C3.91121 10.9344 4.37503 11.089 4.94575 11.1975C5.46055 11.2929 6.00003 11.3373 6.58226 11.3472C6.25167 10.9903 6.00496 10.5528 5.87667 10.0676C5.47864 10.0314 5.09049 9.97547 4.71384 9.89817V9.89981Z" fill="#ECE9F2"/>
<path d="M10.4457 6.71231C10.5411 6.60212 10.5872 6.48698 10.5872 6.36198V5.5281C10.2007 5.80606 9.69081 6.00672 9.01154 6.14652C8.36187 6.28633 7.62009 6.36363 6.86351 6.36363C6.10693 6.36363 5.39476 6.28633 4.71549 6.14652C4.05101 6.00672 3.50989 5.82251 3.07733 5.5281V6.36198C3.07733 6.59389 3.23193 6.77975 3.57239 6.9804C3.91285 7.18106 4.37667 7.33567 4.94739 7.44422C5.37338 7.52317 5.81746 7.56758 6.28785 7.58731C6.83391 6.77317 7.76318 6.23863 8.81746 6.23863C9.41779 6.23863 9.97535 6.41462 10.4474 6.71396L10.4457 6.71231Z" fill="#ECE9F2"/>
<path d="M3.60035 5.10869C3.94082 5.30935 4.40463 5.46396 4.97535 5.57251C5.56253 5.68106 6.18095 5.72712 6.86022 5.72712C7.5395 5.72712 8.15792 5.68106 8.76154 5.57251C9.34871 5.44915 9.79772 5.30935 10.1365 5.10869C10.477 4.92284 10.6316 4.72218 10.6316 4.49027V3.87185C10.6316 3.8554 10.6316 3.83896 10.6283 3.82251C10.6069 3.61363 10.4523 3.43929 10.1365 3.25343C9.79608 3.05277 9.33226 2.89817 8.76154 2.78962C8.17437 2.68106 7.55595 2.63501 6.87667 2.63501C6.19739 2.63501 5.56253 2.68106 4.9918 2.78962C4.41943 2.89817 3.94082 3.06758 3.60035 3.25343C3.28621 3.42777 3.12996 3.61198 3.10858 3.82415C3.10858 3.8406 3.10529 3.85705 3.10529 3.8735V4.49192C3.10529 4.72383 3.25989 4.90968 3.60035 5.11034V5.10869Z" fill="#ECE9F2"/>
<path d="M7.85858 14.1942C8.19904 14.3949 8.66285 14.5495 9.23358 14.658C9.82075 14.7666 10.4392 14.8126 11.1184 14.8126C11.7977 14.8126 12.4161 14.7666 12.9885 14.658C13.5757 14.5347 14.0247 14.3949 14.3635 14.1942C14.704 14.0084 14.8586 13.8077 14.8586 13.5758V12.7419C14.4721 13.0199 13.9622 13.2205 13.2829 13.3603C12.6332 13.5001 11.8767 13.5774 11.1349 13.5774C10.3931 13.5774 9.66614 13.5001 9.00167 13.3603C8.3372 13.237 7.79608 13.0199 7.36351 12.7419V13.5758C7.36351 13.7929 7.51812 13.9936 7.85858 14.1942Z" fill="#ECE9F2"/>
<path d="M11.1497 15.4623C10.3931 15.4623 9.68095 15.385 9.00167 15.2452C8.3372 15.1054 7.79608 14.8899 7.36351 14.6268V15.4607C7.36351 15.6778 7.51812 15.8784 7.85858 16.0791C8.19904 16.2797 8.66285 16.4344 9.23358 16.5429C9.82075 16.6515 10.4392 16.6975 11.1184 16.6975C11.7977 16.6975 12.4326 16.6515 13.0033 16.5429C13.5905 16.4195 14.0395 16.2797 14.3783 16.0791C14.7188 15.8932 14.8734 15.6926 14.8734 15.4607V14.6268C14.4869 14.9047 13.977 15.1054 13.2977 15.2452C12.6481 15.385 11.9063 15.4623 11.1497 15.4623Z" fill="#ECE9F2"/>
<path d="M11.1497 11.7074C10.9869 11.7074 10.8273 11.7024 10.6694 11.6959C10.1563 12.0922 9.51318 12.3291 8.81582 12.3291C8.33391 12.3291 7.87996 12.214 7.47371 12.0149C7.5543 12.1202 7.68095 12.2222 7.85858 12.3274C8.19904 12.5281 8.66285 12.6827 9.23358 12.7913C9.82075 12.8998 10.4392 12.9459 11.1184 12.9459C11.7977 12.9459 12.4326 12.8998 13.0033 12.7913C13.5905 12.6679 14.0395 12.5281 14.3783 12.3274C14.7188 12.1416 14.8734 11.9409 14.8734 11.709V10.8751C14.4869 11.1531 13.977 11.3538 13.2977 11.4936C12.6481 11.6334 11.9063 11.7107 11.1497 11.7107V11.7074Z" fill="#ECE9F2"/>
<path d="M14.9194 9.16955C14.8981 8.96067 14.7434 8.78632 14.4277 8.60047C14.0872 8.39981 13.6234 8.24521 13.0527 8.13665C12.5839 8.05113 12.0954 8.00508 11.5724 7.98863C11.7566 8.38172 11.8635 8.81922 11.8635 9.28139C11.8635 9.9508 11.6448 10.5676 11.2796 11.0692C11.9096 11.0643 12.4885 11.0182 13.0543 10.9163C13.6415 10.7929 14.0905 10.6531 14.4293 10.4524C14.7698 10.2666 14.9244 10.0659 14.9244 9.83402V9.2156C14.9244 9.19915 14.9244 9.18271 14.9211 9.16626L14.9194 9.16955Z" fill="#ECE9F2"/>
<path d="M7.7122 9.92777L9.46384 9.92119L9.45726 8.16955L8.71055 7.42942L8.71549 8.66462L7.25331 7.21231L6.73851 7.73205L8.20068 9.18271L6.96549 9.18764L7.7122 9.92777Z" fill="#ECE9F2"/>
<path d="M8.92766 10.6959V11.4261C9.99838 11.4261 10.9392 10.487 10.9392 9.41461H10.2089C10.2089 10.084 9.59871 10.6959 8.92766 10.6959Z" fill="#ECE9F2"/>
</svg>
