<svg width="1024" height="1024" viewBox="0 0 1024 1024" fill="none" xmlns="http://www.w3.org/2000/svg">
<path d="M912 512C912 591.112 888.54 668.448 844.588 734.228C800.635 800.008 738.164 851.277 665.073 881.552C591.983 911.827 511.556 919.748 433.964 904.314C356.372 888.88 285.098 850.784 229.157 794.843C173.216 738.902 135.12 667.628 119.686 590.036C104.252 512.444 112.173 432.017 142.448 358.927C172.723 285.836 223.992 223.365 289.772 179.412C355.552 135.46 432.888 112 512 112C618.053 112.109 719.732 154.286 794.723 229.277C869.714 304.268 911.891 405.947 912 512ZM850.462 512C850.462 445.059 830.611 379.62 793.42 323.961C756.23 268.301 703.369 224.92 641.524 199.302C579.678 173.685 511.625 166.982 445.97 180.042C380.314 193.101 320.006 225.337 272.672 272.672C225.337 320.006 193.102 380.314 180.042 445.969C166.982 511.624 173.685 579.678 199.302 641.523C224.92 703.369 268.301 756.23 323.961 793.42C379.621 830.611 445.059 850.461 512 850.461C601.732 850.353 687.758 814.659 751.209 751.208C814.659 687.758 850.353 601.732 850.462 512Z" fill="#0F1425"/>
<path d="M617.332 492.177C638.665 470.844 649.331 445.511 649.331 414.845C649.331 377.512 635.998 345.513 609.332 318.847C582.666 292.181 550.667 278.848 512.001 278.848C473.335 278.848 441.335 292.181 414.669 318.847C388.003 345.513 374.67 377.512 374.67 414.845H444.002C444.002 396.179 450.668 378.846 464.002 365.513C477.335 352.18 493.334 345.513 512.001 345.513C530.667 345.513 546.667 352.18 560 365.513C573.333 378.846 579.999 394.845 579.999 414.845C579.999 434.845 573.333 449.511 558.666 462.844L517.334 505.51C490.668 532.176 477.335 564.176 477.335 601.508V618.841H546.667C546.667 594.842 549.333 577.509 556 564.176C561.333 550.842 571.999 537.509 586.666 522.843L617.332 492.177ZM546.667 745.152V677.154H477.335V745.152H546.667Z" fill="#0F1425"/>
</svg>
