<?xml version="1.0" encoding="UTF-8"?>
<svg id="Layer_1" xmlns="http://www.w3.org/2000/svg" version="1.1" viewBox="0 0 60 60">
  <!-- Generator: Adobe Illustrator 29.7.1, SVG Export Plug-In . SVG Version: 2.1.1 Build 8)  -->
  <defs>
    <style>
      .st0 {
        fill-rule: evenodd;
      }
    </style>
  </defs>
  <path class="st0" d="M36.4,7c4.4,0,8.1,3.6,8.1,8.1s.2.5.5.5c4.4,0,8.1,3.6,8.1,8.1s-1.3,5-3.2,6.4c1.9,1.5,3.2,3.8,3.2,6.4,0,4.4-3.6,8.1-8.1,8.1s-.5.2-.5.5c0,4.4-3.6,8.1-8.1,8.1s-5-1.3-6.4-3.2c-1.5,1.9-3.8,3.2-6.4,3.2-4.4,0-8.1-3.6-8.1-8.1s-.2-.5-.5-.5c-4.4,0-8.1-3.6-8.1-8.1,0-2.6,1.3-5,3.2-6.4-1.9-1.5-3.2-3.8-3.2-6.4,0-4.4,3.6-8.1,8.1-8.1s.5-.2.5-.5c0-4.4,3.6-8.1,8.1-8.1,2.6,0,5,1.3,6.4,3.2,1.5-1.9,3.8-3.2,6.4-3.2ZM23.6,10.2c-2.6,0-4.8,2.1-4.8,4.8s0,.8-.2,1.2h0c1.2,1.3,3.3,1,4.2-.5h0s0,0,0,0c.5-.7,1.4-1,2.2-.6h0s0,0,0,0h0c.8.5,1,1.5.6,2.2h0c-1.9,3.4-6.5,4-9.3,1.3h0c0,0,0-.1,0-.1-.4.1-.8.2-1.3.2-2.6,0-4.8,2.1-4.8,4.8,0,2.6,2.1,4.8,4.8,4.8s1.6.7,1.6,1.6-.7,1.6-1.6,1.6c-2.6,0-4.8,2.1-4.8,4.8,0,2.6,2.1,4.8,4.8,4.8s3.8,1.7,3.8,3.8,2.1,4.8,4.8,4.8,4.8-2.1,4.8-4.8v-4.1h-.2c-4.4,0-8.1-3.6-8.1-8.1v-1.8c0-.9.7-1.6,1.6-1.6s1.6.7,1.6,1.6v1.8h0c0,2.7,2.2,4.8,4.8,4.8h.2V15c0-2.6-2.1-4.8-4.8-4.8ZM36.4,10.2c-2.6,0-4.8,2.1-4.8,4.8v4.1h.6c4.4,0,7.9,3.6,7.9,8.1v1.8h0c0,.9-.7,1.6-1.6,1.6s-1.6-.7-1.6-1.6h0v-1.8h0c0-2.7-2.1-4.8-4.7-4.8h0s-.5,0-.5,0v22.6c0,2.6,2.1,4.8,4.8,4.8s4.8-2.1,4.8-4.8,0-.9.2-1.3l-.3-.3c-1.2-1.2-3.3-1-4.2.6h0c-.5.8-1.4,1-2.2.6h0c-.8-.5-1-1.4-.6-2.2h0s0,0,0,0c2-3.3,6.6-3.9,9.3-1.2l.3.3c.4-.1.8-.2,1.2-.2,2.6,0,4.8-2.1,4.8-4.8s-2.1-4.8-4.8-4.8-1.6-.7-1.6-1.6.7-1.6,1.6-1.6c2.6,0,4.8-2.1,4.8-4.8s-2.1-4.8-4.8-4.8-3.8-1.7-3.8-3.8-2.1-4.8-4.8-4.8Z"/>
</svg>