<svg width="13" height="13" viewBox="0 0 13 13" fill="none" xmlns="http://www.w3.org/2000/svg">
<path d="M6.49902 1.74109C3.69662 1.74109 1.4248 4.01289 1.4248 6.81531C1.4248 9.61773 3.6966 11.8895 6.49902 11.8895C9.30143 11.8895 11.5732 9.61773 11.5732 6.81531C11.5673 4.01527 9.29906 1.74699 6.49959 1.74109H6.49902ZM6.49902 10.9303C4.22637 10.9303 2.38403 9.08796 2.38403 6.81531C2.38403 4.54266 4.22637 2.70031 6.49902 2.70031C8.77167 2.70031 10.614 4.54266 10.614 6.81531C10.614 6.81541 10.614 6.81554 10.614 6.81566C10.614 9.08812 8.77183 10.9303 6.49938 10.9303C6.49925 10.9303 6.49913 10.9303 6.499 10.9303H6.49902Z" fill="#88B3DD"/>
<path d="M3.58105 4.54396L4.11704 3.99109L4.6709 4.52807L4.13491 5.08093L3.58105 4.54396Z" fill="#88B3DD"/>
<path d="M6.12402 3.15906H6.88574V3.92078H6.12402V3.15906Z" fill="#88B3DD"/>
<path d="M2.77246 6.51062H3.5459V7.27234H2.77246V6.51062Z" fill="#88B3DD"/>
<path d="M8.35059 4.52193L8.90444 3.99109L9.44043 4.53837L8.88657 5.06921L8.35059 4.52193Z" fill="#88B3DD"/>
<path d="M9.4873 6.51062H10.249V7.27234H9.4873V6.51062Z" fill="#88B3DD"/>
<path d="M8.25684 5.84002L7.71101 5.44421L6.73568 6.78966C6.66778 6.77385 6.5898 6.76479 6.50971 6.76479C6.50736 6.76479 6.50502 6.7648 6.50268 6.76481H6.50303C5.97151 6.76844 5.54161 7.19795 5.53809 7.72859V7.72893C5.54284 8.25443 5.97038 8.67859 6.4971 8.67859C6.49918 8.67859 6.50127 8.67858 6.50336 8.67857H6.50303C7.03453 8.67505 7.46446 8.24557 7.46798 7.71497V7.71463C7.46613 7.50894 7.40203 7.31858 7.29363 7.161L7.29582 7.16436L8.25684 5.84002Z" fill="#88B3DD"/>
</svg>
