<svg width="27" height="27" viewBox="0 0 27 27" fill="none" xmlns="http://www.w3.org/2000/svg">
<path d="M24.8172 21.6272C23.4907 20.8428 22.3481 19.9331 21.3459 18.8878L21.3405 18.8822C22.3124 17.3556 22.8895 15.4952 22.8895 13.5C22.8895 7.90813 18.3564 3.375 12.7645 3.375C9.9683 3.375 7.43681 4.50853 5.6045 6.34112L5.60448 6.34115C3.77088 8.17364 2.63672 10.7058 2.63672 13.5028C2.63672 19.0947 7.16985 23.6278 12.7617 23.6278C14.5664 23.6278 16.2608 23.1557 17.7282 22.3281L17.6775 22.3544C20.6295 23.996 24.5063 22.8944 24.6764 22.8449C24.9549 22.7614 25.1545 22.5073 25.1545 22.2066C25.1545 21.9593 25.0195 21.7435 24.8191 21.6289L24.8158 21.6272H24.8172ZM15.8676 16.5422C15.8676 16.9399 15.5453 17.2622 15.1476 17.2622H10.1747C9.77703 17.2622 9.45467 16.9399 9.45467 16.5422C9.45467 16.1446 9.77703 15.8222 10.1747 15.8222H15.1472C15.5448 15.8222 15.8672 16.1446 15.8672 16.5422H15.8676ZM15.8676 13.5016C15.8676 13.8992 15.5453 14.2216 15.1476 14.2216H10.1747C9.77703 14.2216 9.45467 13.8992 9.45467 13.5016C9.45467 13.1039 9.77703 12.7815 10.1747 12.7815H15.1472C15.5448 12.7815 15.8672 13.1039 15.8672 13.5016H15.8676ZM15.8676 10.4609C15.8676 10.8586 15.5453 11.1809 15.1476 11.1809H10.1747C9.77703 11.1809 9.45467 10.8586 9.45467 10.4609C9.45467 10.0633 9.77703 9.74091 10.1747 9.74091H15.1472C15.5448 9.74091 15.8672 10.0633 15.8672 10.4609H15.8676Z" fill="#9457B5"/>
</svg>
