<svg width="1024" height="1024" viewBox="0 0 1024 1024" fill="none" xmlns="http://www.w3.org/2000/svg">
<path d="M510.639 112C321.76 112 319.73 185.317 319.73 200.408C319.73 223.302 319.73 292.001 319.73 292.001H514.275V319.499C514.275 319.499 311.716 319.499 242.458 319.499C184.647 319.499 112 354.648 112 510.409C112 653.486 168.669 708.817 225.862 708.817C242.843 708.817 293.818 708.817 293.818 708.817C293.818 708.817 293.818 637.799 293.818 613.362C293.818 573.428 313.607 499.5 405.861 499.5C521.57 499.5 551.104 499.5 598.813 499.5C627.192 499.5 707.22 487.165 707.22 394.729C707.22 296.895 707.22 264.619 707.22 218.59C707.228 195.659 703.308 112 510.639 112ZM403.367 173.593C422.727 173.593 438.37 189.229 438.37 208.597C438.37 227.95 422.727 243.601 403.367 243.601C384.007 243.601 368.363 227.957 368.363 208.597C368.363 189.229 384.007 173.593 403.367 173.593Z" fill="black"/>
<path d="M513.361 912C702.153 912 704.502 837.301 704.502 823.592C704.502 800.698 704.502 731.999 704.502 731.999H509.725V704.501C509.725 704.501 713.593 704.501 781.542 704.501C839.789 704.501 912 668.472 912 513.591C912 343.976 835.36 315.183 798.138 315.183C781.149 315.183 730.182 315.183 730.182 315.183C730.182 315.183 730.182 389.481 730.182 410.638C730.182 450.572 711.048 524.5 618.139 524.5C502.43 524.5 476.496 524.5 425.179 524.5C396.874 524.5 316.772 538.289 316.772 629.271C316.772 734.545 316.772 762.108 316.772 805.41C316.772 843.447 340.016 912 513.361 912ZM620.641 850.407C601.281 850.407 585.637 834.763 585.637 815.403C585.637 796.043 601.273 780.399 620.641 780.399C639.993 780.399 655.644 796.043 655.644 815.403C655.644 834.763 639.993 850.407 620.641 850.407Z" fill="black"/>
</svg>
