<svg width="13" height="13" viewBox="0 0 13 13" fill="none" xmlns="http://www.w3.org/2000/svg">
<path d="M9.95847 6.05061L3.24389 12.7881H0.723056V10.2673L7.46056 3.52978L9.95847 6.05061ZM11.9522 4.07978L10.6231 5.40895L8.10222 2.88811L9.43139 1.55895C9.54597 1.42145 9.70639 1.37561 9.91264 1.37561C10.096 1.37561 10.2564 1.44436 10.3939 1.55895L11.9751 3.1402C12.1126 3.25478 12.1585 3.4152 12.1585 3.62145C12.1356 3.78186 12.0897 3.94228 11.9522 4.07978Z" fill="#F7F5FA"/>
<path d="M2.60462 6.87353C2.49546 6.87407 2.39743 6.80687 2.35857 6.70486L1.93858 5.61269C1.92137 5.56816 1.88622 5.53301 1.8417 5.5158L0.74925 5.09547C0.613369 5.04332 0.545496 4.89091 0.597649 4.75496C0.624434 4.6852 0.679555 4.63015 0.74925 4.60336L1.84143 4.18337C1.88595 4.16617 1.92111 4.13102 1.93831 4.08649L2.35864 2.99404C2.41079 2.85816 2.5632 2.79029 2.69915 2.84244C2.76891 2.86923 2.82396 2.92435 2.85075 2.99404L3.27074 4.08622C3.28794 4.13075 3.32309 4.1659 3.36762 4.1831L4.45345 4.60086C4.55958 4.6402 4.62968 4.74181 4.62874 4.85495C4.62712 4.96209 4.56026 5.05742 4.46007 5.09554L3.36789 5.51553C3.32336 5.53274 3.28821 5.56789 3.27101 5.61242L2.85068 6.70486C2.81182 6.80687 2.71379 6.87407 2.60462 6.87353Z" fill="#F7F5FA"/>
<path d="M4.43129 2.98514C4.36153 2.98514 4.29891 2.9421 4.27388 2.87699L4.03309 2.25109C4.02452 2.22876 4.00691 2.21115 3.98458 2.20258L3.35868 1.96179C3.27178 1.92832 3.22846 1.8307 3.26193 1.74373C3.27907 1.69927 3.31422 1.66412 3.35868 1.64698L3.98458 1.40619C4.00691 1.39762 4.02452 1.38001 4.03309 1.35768L4.27206 0.736227C4.29426 0.676382 4.34763 0.63354 4.41091 0.624769C4.48769 0.615459 4.56096 0.659583 4.58862 0.731774L4.82942 1.35768C4.83799 1.38001 4.85559 1.39762 4.87793 1.40619L5.50383 1.64698C5.59073 1.68044 5.63404 1.77807 5.60058 1.86504C5.58344 1.9095 5.54829 1.94465 5.50383 1.96179L4.87793 2.20258C4.85559 2.21115 4.83799 2.22876 4.82942 2.25109L4.58862 2.87699C4.56359 2.94217 4.50112 2.98514 4.43129 2.98514Z" fill="#F7F5FA"/>
</svg>
