<svg width="18" height="18" viewBox="0 0 18 18" fill="none" xmlns="http://www.w3.org/2000/svg">
<path d="M15.3874 11.4568C14.7803 10.8276 13.9297 10.4369 12.9878 10.4369C12.9691 10.4369 12.9504 10.437 12.9317 10.4373L12.9345 10.4373C12.9187 10.437 12.9 10.4369 12.8813 10.4369C11.9394 10.4369 11.0888 10.8276 10.4827 11.4558L10.4817 11.4568C9.85197 12.0546 9.46018 12.8978 9.46018 13.8325C9.46018 13.8542 9.46039 13.8758 9.46081 13.8974L9.46076 13.8941C9.46037 13.9128 9.46016 13.9349 9.46016 13.957C9.46016 14.8911 9.85138 15.7337 10.4789 16.3301L10.4803 16.3314C11.0874 16.9607 11.938 17.3514 12.8799 17.3514C12.8991 17.3514 12.9183 17.3512 12.9374 17.3509L12.9345 17.351C12.9504 17.3512 12.9691 17.3514 12.9878 17.3514C13.9297 17.3514 14.7803 16.9606 15.3864 16.3324L15.3874 16.3314C16.0171 15.7336 16.4089 14.8904 16.4089 13.9557C16.4089 13.9341 16.4087 13.9125 16.4083 13.8909L16.4083 13.8941C16.4087 13.8758 16.4089 13.8542 16.4089 13.8325C16.4089 12.8978 16.0171 12.0546 15.3888 11.4582L15.3874 11.4568ZM15.2984 12.5088H14.2888C14.1761 12.051 14.0157 11.6489 13.8085 11.2763L13.8213 11.3015C14.4618 11.5034 14.9806 11.9337 15.2932 12.4945L15.2998 12.5074L15.2984 12.5088ZM12.9345 11.1222C13.2026 11.5205 13.4246 11.9799 13.5769 12.4701L13.5869 12.5074H12.2822C12.4445 11.9799 12.6665 11.5205 12.9465 11.1032L12.9345 11.1222ZM10.2515 14.579C10.2089 14.3751 10.1824 14.1391 10.1782 13.8976L10.1781 13.8941C10.1824 13.6492 10.2089 13.4131 10.2558 13.1845L10.2515 13.2093H11.4109C11.3854 13.4077 11.3696 13.6399 11.3671 13.8753L11.3671 13.8786C11.3671 13.8786 11.3671 13.8899 11.3671 13.8941C11.3671 13.8984 11.3671 13.9054 11.3671 13.9097C11.3696 14.1484 11.3855 14.3805 11.4139 14.6088L11.4109 14.579H10.2515ZM10.5636 15.2851H11.5747C11.6874 15.7429 11.8477 16.145 12.0549 16.5176L12.0421 16.4924C11.4031 16.2878 10.8862 15.8559 10.5759 15.2939L10.5693 15.2808L10.5636 15.2851ZM11.5747 12.5131H10.5693C10.8882 11.9387 11.4071 11.508 12.0297 11.3107L12.0477 11.3057C11.8538 11.6514 11.6936 12.0516 11.5876 12.4734L11.5803 12.5074L11.5747 12.5131ZM12.9345 16.6661C12.6665 16.2678 12.4445 15.8083 12.2922 15.3182L12.2822 15.2808H13.5884C13.4255 15.8083 13.2031 16.2678 12.9226 16.685L12.9345 16.6661ZM13.7635 14.579H12.1056C12.0792 14.3767 12.0624 14.1392 12.0591 13.8986L12.059 13.8941C12.0629 13.6484 12.0802 13.4111 12.1104 13.1778L12.107 13.2093H13.7634C13.7899 13.4116 13.8067 13.649 13.81 13.8897L13.81 13.8941C13.8067 14.1392 13.7899 14.3767 13.7602 14.6101L13.7635 14.579ZM13.8214 16.4868C14.0157 16.1394 14.1761 15.7372 14.2816 15.3133L14.2888 15.2794H15.2998C14.9811 15.8543 14.4622 16.2855 13.8394 16.4832L13.8213 16.4882L13.8214 16.4868ZM14.4512 14.579C14.4766 14.3805 14.4924 14.1484 14.4949 13.913L14.4949 13.9097C14.4949 13.9097 14.4949 13.8984 14.4949 13.8941C14.4949 13.8899 14.4949 13.8828 14.4949 13.8786C14.4924 13.6399 14.4766 13.4077 14.4481 13.1795L14.4511 13.2093H15.6175C15.6602 13.4131 15.6867 13.6492 15.6909 13.8907L15.691 13.8941C15.6867 14.1391 15.6602 14.3751 15.6133 14.6038L15.6175 14.579H14.4512Z" fill="#9457B5"/>
<path d="M7.90314 1.01257C8.71876 1.01257 9.39376 1.29383 9.95626 1.85632C10.5188 2.41882 10.8 3.12196 10.8 3.93758V10.3113C10.5012 10.4915 10.2278 10.7091 9.98631 10.9577C9.89725 11.0429 9.81213 11.1322 9.73126 11.2253V3.93758C9.73126 3.43133 9.56252 3.00944 9.1969 2.64382C8.83127 2.27819 8.40939 2.10946 7.90314 2.10946C7.39689 2.10946 6.97501 2.2782 6.63751 2.64382C6.30001 3.00944 6.10315 3.43133 6.10315 3.93758V12.9657C6.10315 13.7813 6.3844 14.4563 6.9469 15.047C7.50939 15.6095 8.1844 15.8907 9.00002 15.8907C9.08822 15.8907 9.17479 15.8874 9.25974 15.8808L9.31438 15.9882C9.49944 16.2991 9.72559 16.5826 9.98522 16.8309C9.99563 16.8416 10.0061 16.8523 10.0166 16.8629C9.69494 16.946 9.35639 16.9876 9.00002 16.9876C7.90314 16.9876 6.97502 16.5938 6.18752 15.8063C5.40002 15.0188 5.00626 14.0907 5.00626 12.9657V3.93758C5.00626 3.12196 5.28751 2.44695 5.85001 1.85632C6.41251 1.29382 7.08751 1.01257 7.90314 1.01257Z" fill="#9457B5"/>
<path d="M8.26876 11.5313C8.26876 11.7001 8.35315 11.8688 8.49377 12.0094C8.6344 12.1501 8.80314 12.2345 9.00002 12.2345C9.03227 12.2345 9.06376 12.2321 9.0945 12.2277C8.9431 12.5704 8.83865 12.9384 8.78937 13.3236C8.36339 13.2869 8.00235 13.1177 7.70626 12.797C7.36876 12.4595 7.17189 12.0095 7.17189 11.5313V4.66882H8.26876V11.5313Z" fill="#9457B5"/>
<path d="M12.9938 9.73374C12.9918 9.73374 12.9898 9.73373 12.9878 9.73373C12.97 9.73373 12.9522 9.73389 12.9346 9.73412C12.9174 9.73389 12.8991 9.73373 12.8813 9.73373C12.5418 9.73373 12.212 9.77574 11.8969 9.85478V4.66882H12.9938V9.73374Z" fill="#9457B5"/>
</svg>
