<?xml version="1.0" encoding="UTF-8"?>
<svg id="Layer_1" xmlns="http://www.w3.org/2000/svg" version="1.1" viewBox="0 0 1024 1024">
  <!-- Generator: Adobe Illustrator 29.8.1, SVG Export Plug-In . SVG Version: 2.1.1 Build 2)  -->
  <path d="M793.3,549.8l94.5,72.7-8.7,14.5-77,132.3-7.3,13.1-110.5-43.6c-21.8,16-42.2,27.6-64,37.8l-16,116.3h-186l-16-116.3c-23.3-10.2-43.6-21.8-64-37.8l-110.5,43.6-7.3-13.1-77-132.3-8.7-14.5,94.5-72.7c-1.5-14.5-1.5-26.2-1.5-37.8s0-23.3,1.5-37.8l-94.5-72.7,8.7-14.5,77-132.3,7.3-13.1,110.5,43.6c21.8-16,42.2-27.6,64-37.8l17.4-116.3h186l16,116.3c23.3,10.2,43.6,21.8,64,37.8l110.5-43.6,93,159.9-94.5,72.7c2.9,14.5,2.9,26.2,2.9,37.8s-1.5,23.3-4.4,37.8h0ZM418.2,606.5c26.2,26.2,56.7,39.2,93,39.2s66.9-13.1,93-39.2c26.2-26.2,39.2-58.1,39.2-94.5s-13.1-68.3-39.2-94.5c-26.2-26.2-56.7-39.2-93-39.2s-66.9,13.1-93,39.2c-26.2,26.2-39.2,58.1-39.2,94.5s13.1,68.3,39.2,94.5Z"/>
</svg>