<svg width="18" height="18" viewBox="0 0 18 18" fill="none" xmlns="http://www.w3.org/2000/svg">
<path fill-rule="evenodd" clip-rule="evenodd" d="M7.25635 0.0648804C7.73434 0.0648804 8.10003 0.205444 8.49365 0.458435C8.85928 0.739685 9.11299 1.07758 9.28174 1.49945H13.6685V8.1264C13.2706 8.0282 12.8545 7.97601 12.4263 7.97601C12.3622 7.97602 12.2984 7.97858 12.2349 7.9809V2.9057H10.8286V5.0434H3.68408V2.9057H2.27783V14.2963H7.39209C7.5064 14.7968 7.69294 15.2692 7.94092 15.7026H0.871582V1.49945H5.25928C5.42803 1.07758 5.68174 0.71156 6.04736 0.458435C6.41286 0.205502 6.80653 0.0648851 7.25635 0.0648804ZM5.62549 11.4555C6.07547 11.8773 6.63765 12.0746 7.25635 12.0746H7.31299C7.33264 12.0746 7.35215 12.0721 7.37158 12.0717C7.29887 12.4169 7.26025 12.7752 7.26025 13.142C7.26026 13.1704 7.26175 13.1987 7.26221 13.227C7.26026 13.227 7.25829 13.228 7.25635 13.228C6.30011 13.228 5.45673 12.8897 4.78174 12.2709L3.7124 13.3403V10.3871H6.66553L5.62549 11.4555ZM10.8052 8.23676C10.4068 8.36836 10.03 8.54673 9.68115 8.76605L7.87549 8.78363L8.94385 7.71527C8.46572 7.2934 7.93135 7.06801 7.25635 7.09613C6.55327 7.09614 5.99109 7.34971 5.48486 7.8559C5.2037 8.13706 4.97826 8.50232 4.86572 8.89594L4.8374 9.00922L3.65674 8.92426L3.68408 8.75531C3.85282 8.08051 4.1624 7.48996 4.66846 6.98383C5.37158 6.25258 6.24386 5.88715 7.25635 5.88715C8.21255 5.88715 9.05618 6.1964 9.75928 6.8432L10.8286 5.77484L10.8052 8.23676ZM7.28467 1.49945C7.08779 1.49945 6.91846 1.55609 6.77783 1.69672C6.6375 1.83726 6.58154 2.00589 6.58154 2.20258C6.58154 2.39926 6.6375 2.56789 6.77783 2.70844C6.91846 2.84906 7.08779 2.9057 7.28467 2.9057C7.48147 2.90567 7.64994 2.84902 7.79053 2.70844C7.93109 2.56783 7.98779 2.39941 7.98779 2.20258C7.98779 2.00574 7.93109 1.83732 7.79053 1.69672C7.64994 1.55613 7.48147 1.49948 7.28467 1.49945Z" fill="#F0BF54"/>
<path d="M13.4719 13.1417L15.4312 11.1957L14.3721 10.1498L12.426 12.0959L10.48 10.1366L9.4209 11.1957L11.3802 13.1417L9.43414 15.0878L10.48 16.1336L12.426 14.1876L14.3721 16.1469L15.4312 15.0878L13.4719 13.1417Z" fill="#F0BF54"/>
</svg>
