<svg width="32" height="32" viewBox="0 0 32 32" fill="none" xmlns="http://www.w3.org/2000/svg">
<path d="M16 0.0087204C7.16344 0.0087204 0 7.17216 0 16.0087C0 24.8453 7.16344 32.0087 16 32.0087C24.8366 32.0087 32 24.8453 32 16.0087C32 7.17216 24.8366 0.0087204 16 0.0087204Z" fill="black"/>
<path d="M11.9251 10.5338L9.51392 10.1893L9.55504 10.4566C9.63972 11.0071 10.0904 11.4279 10.6453 11.4747L10.6934 11.4788C11.2864 11.5289 11.8199 11.1194 11.9251 10.5338Z" fill="#388EE9"/>
<path d="M20.354 17.9954C22.9375 17.2546 24.7418 14.8581 24.7418 12.1676C24.7418 8.8241 22.0228 6.10395 18.6808 6.10395H7.61914L7.62082 8.43137C9.86252 7.71578 12.5496 8.69978 13.7294 10.146C13.7294 10.146 19.3822 9.65806 20.1916 13.3327C20.1916 13.3327 14.8362 11.0619 11.8577 15.2659C11.1497 16.2652 10.9775 17.4708 10.5449 18.9486C9.73828 21.7036 9.26242 23.758 8.19838 25.9147H12.0696L13.4474 19.4629H15.6336L19.4556 25.9147H24.3752L19.8088 18.2743L20.2996 18.0124L20.354 17.9954Z" fill="#388EE9"/>
</svg>
